<?xml version="1.0" encoding="UTF-8" standalone="no"?>
<!-- Created with Inkscape (http://www.inkscape.org/) -->

<svg
   xmlns:dc="http://purl.org/dc/elements/1.1/"
   xmlns:cc="http://creativecommons.org/ns#"
   xmlns:rdf="http://www.w3.org/1999/02/22-rdf-syntax-ns#"
   xmlns:svg="http://www.w3.org/2000/svg"
   xmlns="http://www.w3.org/2000/svg"
   xmlns:sodipodi="http://sodipodi.sourceforge.net/DTD/sodipodi-0.dtd"
   xmlns:inkscape="http://www.inkscape.org/namespaces/inkscape"
   version="1.1"
   id="svg2624"
   xml:space="preserve"
   width="982.63934"
   height="831.45825"
   viewBox="0 0 982.63934 831.45825"
   sodipodi:docname="RC_13_2_Chart_EQA_and_other_activities.svg"
   inkscape:version="0.92.1 r15371"><metadata
     id="metadata2630"><rdf:RDF><cc:Work
         rdf:about=""><dc:format>image/svg+xml</dc:format><dc:type
           rdf:resource="http://purl.org/dc/dcmitype/StillImage" /><dc:title></dc:title></cc:Work></rdf:RDF></metadata><defs
     id="defs2628"><clipPath
       clipPathUnits="userSpaceOnUse"
       id="clipPath2640"><path
         d="M 0,0 H 737 V 623.5 H 0 Z"
         id="path2638"
         inkscape:connector-curvature="0"
         style="clip-rule:evenodd" /></clipPath></defs><sodipodi:namedview
     pagecolor="#ffffff"
     bordercolor="#666666"
     borderopacity="1"
     objecttolerance="10"
     gridtolerance="10"
     guidetolerance="10"
     inkscape:pageopacity="0"
     inkscape:pageshadow="2"
     inkscape:window-width="1280"
     inkscape:window-height="966"
     id="namedview2626"
     showgrid="false"
     inkscape:zoom="0.89240801"
     inkscape:cx="491.31967"
     inkscape:cy="415.72913"
     inkscape:window-x="0"
     inkscape:window-y="29"
     inkscape:window-maximized="1"
     inkscape:current-layer="g2636" /><g
     id="g2632"
     inkscape:groupmode="layer"
     inkscape:label="RC_13_2_Chart_EQA_and_other_activities"
     transform="matrix(1.3333333,0,0,-1.3333333,0,831.45827)"><g
       id="g2634"><g
         id="g2636"
         clip-path="url(#clipPath2640)"><path
           d="M 0,623.5 H 737 V -0.1 H 0 Z"
           style="fill:#ffffff;fill-opacity:1;fill-rule:evenodd;stroke:none"
           id="path2642"
           inkscape:connector-curvature="0" /><path
           d="M 367.1,28.2 H 263.6 v 567 h 207 v -567 z"
           style="fill:#e4e9f1;fill-opacity:1;fill-rule:evenodd;stroke:none"
           id="path2644"
           inkscape:connector-curvature="0" /><path
           d="M 595.2,28.2 H 493.1 l 0.1,566.9 204.1,0.1 -0.1,-567 z"
           style="fill:#eeeeee;fill-opacity:1;fill-rule:evenodd;stroke:none"
           id="path2646"
           inkscape:connector-curvature="0" /><path
           d="M 368.4,56.6 28.3,56.5 v 170.1 l 680.3,0.1 V 56.6 Z"
           style="fill:#eeeeee;fill-opacity:1;fill-rule:evenodd;stroke:none"
           id="path2648"
           inkscape:connector-curvature="0" /><path
           d="M 368.4,283.3 H 28.3 v 170.1 l 680.3,0.1 V 283.4 Z"
           style="fill:#b8c5d9;fill-opacity:1;fill-rule:evenodd;stroke:none"
           id="path2650"
           inkscape:connector-curvature="0" /><path
           d="M 595.5,28.8 H 482.4 V 255 H 708.6 V 28.8 Z"
           style="fill:#eeeeee;fill-opacity:1;fill-rule:evenodd;stroke:none"
           id="path2652"
           inkscape:connector-curvature="0" /><g
           id="g2654"><text
             transform="matrix(1,0,0,-1,542.5,135.5)"
             style="font-variant:normal;font-weight:normal;font-size:16px;font-family:DINPro;-inkscape-font-specification:DINPro-Regular;writing-mode:lr-tb;fill:#666666;fill-opacity:1;fill-rule:nonzero;stroke:none"
             id="text2658"><tspan
               x="0 10.304 15.6 24.591999 32.992001 39.695999 43.599998 52 59.792 65.087997 69.167999 76.272003 80.351997 85.648003 89.648003 98.047997"
               y="0"
               sodipodi:role="line"
               id="tspan2656">Other activities</tspan></text>
</g><path
           d="M 595.2,254.9 H 481.8 v 226.8 l 226.8,0.1 V 254.9 Z"
           style="fill:#b8c5d9;fill-opacity:1;fill-rule:evenodd;stroke:none"
           id="path2660"
           inkscape:connector-curvature="0" /><g
           id="g2662"><text
             transform="matrix(1,0,0,-1,536.9,372)"
             style="font-variant:normal;font-weight:normal;font-size:16px;font-family:DINPro;-inkscape-font-specification:DINPro-Regular;writing-mode:lr-tb;fill:#10447d;fill-opacity:1;fill-rule:nonzero;stroke:none"
             id="text2666"><tspan
               x="0 10.192 18.496 27.584 35.487999 44.48 49.264 54.368 62.768002 71.760002 79.552002 86.655998 90.639999 99.040001 108.032"
               y="0"
               sodipodi:role="line"
               id="tspan2664">Consultancy and</tspan></text>
</g><g
           id="g2668"><text
             transform="matrix(1,0,0,-1,525.8,351.8)"
             style="font-variant:normal;font-weight:normal;font-size:16px;font-family:DINPro;-inkscape-font-specification:DINPro-Regular;writing-mode:lr-tb;fill:#10447d;fill-opacity:1;fill-rule:nonzero;stroke:none"
             id="text2672"><tspan
               x="0 8.3999996 16.992001 25.983999 30.063999 36.959999 45.360001 49.759998 58.16 67.152 72.447998 76.351997 84.751999 92.543999 97.839996 101.92 108.912 112.992 118.288 122.368 130.76801"
               y="0"
               sodipodi:role="line"
               id="tspan2670">equivalent activities</tspan></text>
</g><path
           d="M 368.4,28.2 H 255 V 255.1 H 481.9 V 28.2 Z"
           style="fill:#e4e9f1;fill-opacity:1;fill-rule:evenodd;stroke:none"
           id="path2674"
           inkscape:connector-curvature="0" /><g
           id="g2676"><text
             transform="matrix(1,0,0,-1,298.7,145.4)"
             style="font-variant:normal;font-weight:normal;font-size:16px;font-family:DINPro;-inkscape-font-specification:DINPro-Regular;writing-mode:lr-tb;fill:#10447d;fill-opacity:1;fill-rule:nonzero;stroke:none"
             id="text2680"><tspan
               x="0 9.6000004 17.280001 22.48 30.879999 37.584 46.576 54.976002 59.759998 63.664001 74.047997 83.744003 87.648003 96.047997 105.04 110.336 118.24 122.32 131.024"
               y="0"
               sodipodi:role="line"
               id="tspan2678">External QA outside</tspan></text>
</g><g
           id="g2682"><text
             transform="matrix(1,0,0,-1,296,125.1)"
             style="font-variant:normal;font-weight:normal;font-size:16px;font-family:DINPro;-inkscape-font-specification:DINPro-Regular;writing-mode:lr-tb;fill:#10447d;fill-opacity:1;fill-rule:nonzero;stroke:none"
             id="text2686"><tspan
               x="0 5.296 14.288 22.688 26.672001 34.576 42.080002 50.48 59.183998 67.584 71.487999 79.888 84.975998 88.879997 94.176003 103.168 111.568 115.552 125.152 134.54401"
               y="0"
               sodipodi:role="line"
               id="tspan2684">the scope of the ESG</tspan></text>
</g><path
           d="M 368.4,254.9 H 255 V 481.8 H 481.9 V 254.9 Z"
           style="fill:#92a4c4;fill-opacity:1;fill-rule:evenodd;stroke:none"
           id="path2688"
           inkscape:connector-curvature="0" /><g
           id="g2690"><text
             transform="matrix(1,0,0,-1,302,372.1)"
             style="font-variant:normal;font-weight:500;font-size:16px;font-family:DINPro;-inkscape-font-specification:DINPro-Medium;writing-mode:lr-tb;fill:#10447d;fill-opacity:1;fill-rule:nonzero;stroke:none"
             id="text2694"><tspan
               x="0 9.6000004 17.68 23.072001 31.664 38.655998 47.743999 56.144001 61.040001 64.832001 75.216003 85.120003 89.008003 100.8 104.992 110.48 119.376 123.664"
               y="0"
               sodipodi:role="line"
               id="tspan2692">External QA within</tspan></text>
</g><g
           id="g2696"><text
             transform="matrix(1,0,0,-1,295.5,351.8)"
             style="font-variant:normal;font-weight:500;font-size:16px;font-family:DINPro;-inkscape-font-specification:DINPro-Medium;writing-mode:lr-tb;fill:#10447d;fill-opacity:1;fill-rule:nonzero;stroke:none"
             id="text2700"><tspan
               x="0 5.3920002 14.384 22.976 26.864 34.768002 42.16 50.751999 59.551998 68.239998 72.031998 80.528 85.807999 89.695999 94.991997 104.08 112.672 116.464 126.064 135.45599"
               y="0"
               sodipodi:role="line"
               id="tspan2698">the scope of the ESG</tspan></text>
</g><g
           id="g2702"><path
             d="M 481.9,471.1 V 38.3"
             style="fill:none;stroke:#10447d;stroke-width:1.49989998;stroke-linecap:butt;stroke-linejoin:round;stroke-miterlimit:10;stroke-dasharray:none;stroke-opacity:1"
             id="path2704"
             inkscape:connector-curvature="0" /></g><path
           d="m 481.9,478.9 -5.4,-8.5 h 10.8 z"
           style="fill:#10447d;fill-opacity:1;fill-rule:evenodd;stroke:none"
           id="path2706"
           inkscape:connector-curvature="0" /><path
           d="m 481.9,30.4 5.4,8.6 h -10.8 z"
           style="fill:#10447d;fill-opacity:1;fill-rule:evenodd;stroke:none"
           id="path2708"
           inkscape:connector-curvature="0" /><g
           id="g2710"><path
             d="M 265.8,255 H 698"
             style="fill:none;stroke:#10447d;stroke-width:1.49989998;stroke-linecap:butt;stroke-linejoin:round;stroke-miterlimit:10;stroke-dasharray:none;stroke-opacity:1"
             id="path2712"
             inkscape:connector-curvature="0" /></g><path
           d="m 258,255 8.5,-5.4 v 10.8 z"
           style="fill:#10447d;fill-opacity:1;fill-rule:evenodd;stroke:none"
           id="path2714"
           inkscape:connector-curvature="0" /><path
           d="m 705.8,255 -8.5,5.4 v -10.8 z"
           style="fill:#10447d;fill-opacity:1;fill-rule:evenodd;stroke:none"
           id="path2716"
           inkscape:connector-curvature="0" /><g
           id="g2718"><text
             transform="matrix(1,0,0,-1,270.7,551.1)"
             style="font-variant:normal;font-weight:500;font-size:14px;font-family:DINPro;-inkscape-font-specification:DINPro-Medium;writing-mode:lr-tb;fill:#000000;fill-opacity:1;fill-rule:nonzero;stroke:none"
             id="text2722"><tspan
               x="0 8.4840002 15.568 20.356001 27.944 34.048 41.944 49.349998 53.731998 57.035999 64.82 72.800003 80.206001 84.503998 88.199997 92.987999 99.568001 102.956 110.362 117.348 124.25 132.23 138.23599 145.642 153.53799 160.132 167.72"
               y="0"
               sodipodi:role="line"
               id="tspan2720">External quality assurance:</tspan></text>
</g><g
           id="g2724"><text
             transform="matrix(1,0,0,-1,270.7,535.9)"
             style="font-variant:normal;font-weight:normal;font-size:6.30000019px;font-family:OpenSymbol;-inkscape-font-specification:OpenSymbol;writing-mode:lr-tb;fill:#000000;fill-opacity:1;fill-rule:nonzero;stroke:none"
             id="text2728"><tspan
               x="0"
               y="0"
               id="tspan2726">●</tspan></text>
</g><g
           id="g2730"><text
             transform="matrix(1,0,0,-1,287.7,533.4)"
             style="font-variant:normal;font-weight:normal;font-size:14px;font-family:DINPro;-inkscape-font-specification:DINPro-Regular;writing-mode:lr-tb;fill:#000000;fill-opacity:1;fill-rule:nonzero;stroke:none"
             id="text2734"><tspan
               x="0 8.8900003 14.294 21.700001 29.386 36.875999 44.757999 52.639999 60.046001 67.732002 71.218002 78.903999 84.307999 91.713997 98.419998 105.91 112.616"
               y="0"
               sodipodi:role="line"
               id="tspan2732">Predefned process</tspan></text>
</g><g
           id="g2736"><text
             transform="matrix(1,0,0,-1,270.7,518.1)"
             style="font-variant:normal;font-weight:normal;font-size:6.30000019px;font-family:OpenSymbol;-inkscape-font-specification:OpenSymbol;writing-mode:lr-tb;fill:#000000;fill-opacity:1;fill-rule:nonzero;stroke:none"
             id="text2740"><tspan
               x="0"
               y="0"
               id="tspan2738">●</tspan></text>
</g><g
           id="g2742"><text
             transform="matrix(1,0,0,-1,287.7,515.6)"
             style="font-variant:normal;font-weight:normal;font-size:14px;font-family:DINPro;-inkscape-font-specification:DINPro-Regular;writing-mode:lr-tb;fill:#000000;fill-opacity:1;fill-rule:nonzero;stroke:none"
             id="text2746"><tspan
               x="0 7 13.202 20.888 24.472 31.177999 38.667999 42.77 46.256001 50.862 58.268002 64.162003 76.552002 80.136002 88.017998 95.424004 99.330002 106.736 114.422 120.624 124.11 128.29601 136.696 144.98399 154.084 157.57001 164.864 168.644 176.036"
               y="0"
               sodipodi:role="line"
               id="tspan2744">Typical terminology (ESG 3.1)</tspan></text>
</g><g
           id="g2748"><text
             transform="matrix(1,0,0,-1,500.3,551.1)"
             style="font-variant:normal;font-weight:500;font-size:14px;font-family:DINPro;-inkscape-font-specification:DINPro-Medium;writing-mode:lr-tb;fill:#000000;fill-opacity:1;fill-rule:nonzero;stroke:none"
             id="text2752"><tspan
               x="0 9.0860004 13.874 21.77 29.358 35.462002 38.849998 43.638 50.217999 58.001999 65.589996 72.491997 75.879997 83.384003 87.975998 91.363998 98.769997 105.56 110.348 114.128 120.722 124.418 129.20599 132.90199 140.40601 147.392"
               y="0"
               sodipodi:role="line"
               id="tspan2750">Other types of activities:</tspan></text>
</g><g
           id="g2754"><text
             transform="matrix(1,0,0,-1,500.3,535.9)"
             style="font-variant:normal;font-weight:normal;font-size:6.30000019px;font-family:OpenSymbol;-inkscape-font-specification:OpenSymbol;writing-mode:lr-tb;fill:#000000;fill-opacity:1;fill-rule:nonzero;stroke:none"
             id="text2758"><tspan
               x="0"
               y="0"
               id="tspan2756">●</tspan></text>
</g><g
           id="g2760"><text
             transform="matrix(1,0,0,-1,517.3,533.4)"
             style="font-variant:normal;font-weight:normal;font-size:14px;font-family:DINPro;-inkscape-font-specification:DINPro-Regular;writing-mode:lr-tb;fill:#000000;fill-opacity:1;fill-rule:nonzero;stroke:none"
             id="text2764"><tspan
               x="0 3.99 11.872 19.558001 23.142 29.344 32.928001 40.613998 48.495998 55.986 60.172001 63.574001 71.260002 78.75 91.056 98.545998 106.428 114.114 120.106 127.792 133.588 137.172 143.276 150.76601"
               y="0"
               sodipodi:role="line"
               id="tspan2762">Individual demand-driven</tspan></text>
</g><g
           id="g2766"><text
             transform="matrix(1,0,0,-1,500.3,518.1)"
             style="font-variant:normal;font-weight:normal;font-size:6.30000019px;font-family:OpenSymbol;-inkscape-font-specification:OpenSymbol;writing-mode:lr-tb;fill:#000000;fill-opacity:1;fill-rule:nonzero;stroke:none"
             id="text2770"><tspan
               x="0"
               y="0"
               id="tspan2768">●</tspan></text>
</g><g
           id="g2772"><text
             transform="matrix(1,0,0,-1,517.3,515.6)"
             style="font-variant:normal;font-weight:normal;font-size:14px;font-family:DINPro;-inkscape-font-specification:DINPro-Regular;writing-mode:lr-tb;fill:#000000;fill-opacity:1;fill-rule:nonzero;stroke:none"
             id="text2776"><tspan
               x="0 9.184 13.79 21.672001 29.162001 35.056 38.458 43.063999 50.470001 56.363998 68.753998 72.337997 80.220001 87.709999 91.503998 98.910004 106.596"
               y="0"
               sodipodi:role="line"
               id="tspan2774">Other terminology</tspan></text>
</g><g
           id="g2778"><text
             transform="matrix(1,0,0,-1,35.4,409.7)"
             style="font-variant:normal;font-weight:normal;font-size:6.30000019px;font-family:OpenSymbol;-inkscape-font-specification:OpenSymbol;writing-mode:lr-tb;fill:#000000;fill-opacity:1;fill-rule:nonzero;stroke:none"
             id="text2782"><tspan
               x="0"
               y="0"
               id="tspan2780">●</tspan></text>
</g><g
           id="g2784"><text
             transform="matrix(1,0,0,-1,52.4,407.2)"
             style="font-variant:normal;font-weight:500;font-size:14px;font-family:DINPro;-inkscape-font-specification:DINPro-Medium;writing-mode:lr-tb;fill:#000000;fill-opacity:1;fill-rule:nonzero;stroke:none"
             id="text2788"><tspan
               x="0 8.2880001 16.268 24.052 27.747999 35.251999 42.139999"
               y="0"
               sodipodi:role="line"
               id="tspan2786">Subject</tspan></text>
</g><g
           id="g2790"><text
             transform="matrix(1,0,0,-1,99.4,407.2)"
             style="font-variant:normal;font-weight:normal;font-size:14px;font-family:DINPro;-inkscape-font-specification:DINPro-Regular;writing-mode:lr-tb;fill:#000000;fill-opacity:1;fill-rule:nonzero;stroke:none"
             id="text2794"><tspan
               x="0 4.1020002 7.5879998 12.194 19.6 27.09 33.894001 41.776001 45.360001 53.34 60.942001 64.428001 71.917999 79.800003 87.402 90.888 94.793999 102.2 109.69 115.486 123.368 126.952 134.93201 142.618"
               y="0"
               sodipodi:role="line"
               id="tspan2792">: teaching and learning </tspan></text>
</g><g
           id="g2796"><text
             transform="matrix(1,0,0,-1,52.4,389.4)"
             style="font-variant:normal;font-weight:normal;font-size:14px;font-family:DINPro;-inkscape-font-specification:DINPro-Regular;writing-mode:lr-tb;fill:#000000;fill-opacity:1;fill-rule:nonzero;stroke:none"
             id="text2800"><tspan
               x="0 3.5840001 11.466 14.952 24.738001 33.040001 36.526001 40.110001 48.09 54.894001 59.080002 62.972 66.374001 70.279999 77.685997 85.176003 90.972 98.952003 102.536 110.418 118.02"
               y="0"
               sodipodi:role="line"
               id="tspan2798">in HE incl. learning </tspan></text>
</g><g
           id="g2802"><text
             transform="matrix(1,0,0,-1,52.4,371.6)"
             style="font-variant:normal;font-weight:normal;font-size:14px;font-family:DINPro;-inkscape-font-specification:DINPro-Regular;writing-mode:lr-tb;fill:#000000;fill-opacity:1;fill-rule:nonzero;stroke:none"
             id="text2806"><tspan
               x="0 7.4899998 15.372 21.573999 25.158001 30.66 38.066002 45.948002 58.254002 65.744003 73.625999 78.316002 81.802002 89.194 97.075996 104.762 108.248 113.652 121.142 124.936 132.23 138.334 145.82401 153.70599 158.396 161.798 165.98399 169.56799 177.548 185.052 192.03799"
               y="0"
               sodipodi:role="line"
               id="tspan2804">environment and relevant links </tspan></text>
</g><g
           id="g2808"><text
             transform="matrix(1,0,0,-1,52.4,353.9)"
             style="font-variant:normal;font-weight:normal;font-size:14px;font-family:DINPro;-inkscape-font-specification:DINPro-Regular;writing-mode:lr-tb;fill:#000000;fill-opacity:1;fill-rule:nonzero;stroke:none"
             id="text2812"><tspan
               x="0 4.6059999 12.012 15.498 20.902 28.392 35.293999 42.784 50.175999 55.580002 62.383999 70.363998 73.849998 84.153999 87.556 91.139999 99.120003 107.002 114.296 120.4 127.89 132.496 136.08 143.57001"
               y="0"
               sodipodi:role="line"
               id="tspan2810">to research &amp; innovation</tspan></text>
</g><g
           id="g2814"><text
             transform="matrix(1,0,0,-1,35.4,338.6)"
             style="font-variant:normal;font-weight:normal;font-size:6.30000019px;font-family:OpenSymbol;-inkscape-font-specification:OpenSymbol;writing-mode:lr-tb;fill:#000000;fill-opacity:1;fill-rule:nonzero;stroke:none"
             id="text2818"><tspan
               x="0"
               y="0"
               id="tspan2816">●</tspan></text>
</g><g
           id="g2820"><text
             transform="matrix(1,0,0,-1,52.4,336.1)"
             style="font-variant:normal;font-weight:500;font-size:14px;font-family:DINPro;-inkscape-font-specification:DINPro-Medium;writing-mode:lr-tb;fill:#000000;fill-opacity:1;fill-rule:nonzero;stroke:none"
             id="text2824"><tspan
               x="0 9.184 16.968 20.664 28.167999 35.056"
               y="0"
               sodipodi:role="line"
               id="tspan2822">Object</tspan></text>
</g><g
           id="g2826"><text
             transform="matrix(1,0,0,-1,92.3,336.1)"
             style="font-variant:normal;font-weight:normal;font-size:14px;font-family:DINPro;-inkscape-font-specification:DINPro-Regular;writing-mode:lr-tb;fill:#000000;fill-opacity:1;fill-rule:nonzero;stroke:none"
             id="text2830"><tspan
               x="0 4.1859999 7.5879998 17.374001 25.774 29.68 33.375999 36.862 44.548 51.953999 59.639999 67.129997 72.926003 77.615997 90.005997 97.412003 105.294 109.984 113.68"
               y="0"
               sodipodi:role="line"
               id="tspan2828">: HEI, department, </tspan></text>
</g><g
           id="g2832"><text
             transform="matrix(1,0,0,-1,52.4,318.3)"
             style="font-variant:normal;font-weight:normal;font-size:14px;font-family:DINPro;-inkscape-font-specification:DINPro-Regular;writing-mode:lr-tb;fill:#000000;fill-opacity:1;fill-rule:nonzero;stroke:none"
             id="text2836"><tspan
               x="0 4.1999998 11.69 18.493999 26.375999 30.66 35.265999 40.459999 44.155998 47.641998 55.327999 60.731998 68.138 75.823997 81.620003 89.012001 101.318 113.708 121.198 124.894 128.38 135.786 140.28 147.168"
               y="0"
               sodipodi:role="line"
               id="tspan2834">faculty, programme, etc.</tspan></text>
</g><g
           id="g2838"><text
             transform="matrix(1,0,0,-1,35.4,174.1)"
             style="font-variant:normal;font-weight:normal;font-size:6.30000019px;font-family:OpenSymbol;-inkscape-font-specification:OpenSymbol;writing-mode:lr-tb;fill:#000000;fill-opacity:1;fill-rule:nonzero;stroke:none"
             id="text2842"><tspan
               x="0"
               y="0"
               id="tspan2840">●</tspan></text>
</g><g
           id="g2844"><text
             transform="matrix(1,0,0,-1,52.4,171.5)"
             style="font-variant:normal;font-weight:500;font-size:14px;font-family:DINPro;-inkscape-font-specification:DINPro-Medium;writing-mode:lr-tb;fill:#000000;fill-opacity:1;fill-rule:nonzero;stroke:none"
             id="text2848"><tspan
               x="0 8.2880001 16.268 24.052 27.747999 35.251999 42.139999"
               y="0"
               sodipodi:role="line"
               id="tspan2846">Subject</tspan></text>
</g><g
           id="g2850"><text
             transform="matrix(1,0,0,-1,99.4,171.5)"
             style="font-variant:normal;font-weight:normal;font-size:14px;font-family:DINPro;-inkscape-font-specification:DINPro-Regular;writing-mode:lr-tb;fill:#000000;fill-opacity:1;fill-rule:nonzero;stroke:none"
             id="text2854"><tspan
               x="0 4.1020002 7.5879998 15.078 19.768 27.65 35.056 40.950001 44.436001 56.742001 64.232002 68.837997 73.444 80.933998 86.632004 93.617996 97.103996 101.71 109.69 117.082 124.964"
               y="0"
               sodipodi:role="line"
               id="tspan2852">: other matters than </tspan></text>
</g><g
           id="g2856"><text
             transform="matrix(1,0,0,-1,52.4,153.7)"
             style="font-variant:normal;font-weight:normal;font-size:14px;font-family:DINPro;-inkscape-font-specification:DINPro-Regular;writing-mode:lr-tb;fill:#000000;fill-opacity:1;fill-rule:nonzero;stroke:none"
             id="text2860"><tspan
               x="0 4.6059999 12.012 19.502001 26.306 34.285999 37.869999 45.751999 53.354 56.84 64.330002 72.211998 79.814003 83.300003 87.206001 94.612 102.102 107.898 115.78 119.364 127.344 135.03 138.51601 142.10001 149.98199 153.468 163.17 171.57001"
               y="0"
               sodipodi:role="line"
               id="tspan2858">teaching and learning in HE,</tspan></text>
</g><g
           id="g2862"><text
             transform="matrix(1,0,0,-1,52.4,136)"
             style="font-variant:normal;font-weight:normal;font-size:14px;font-family:DINPro;-inkscape-font-specification:DINPro-Regular;writing-mode:lr-tb;fill:#000000;fill-opacity:1;fill-rule:nonzero;stroke:none"
             id="text2866"><tspan
               x="0 7.4899998 12.18 20.062 27.468 33.362 36.848 44.254002 51.939999 59.821999 66.625999 74.017998 78.708 82.292 89.697998 97.580002 101.066 108.052 115.458 122.262 126.868 134.274 140.07001"
               y="0"
               sodipodi:role="line"
               id="tspan2864">other education sectors</tspan></text>
</g><g
           id="g2868"><text
             transform="matrix(1,0,0,-1,35.4,120.7)"
             style="font-variant:normal;font-weight:normal;font-size:6.30000019px;font-family:OpenSymbol;-inkscape-font-specification:OpenSymbol;writing-mode:lr-tb;fill:#000000;fill-opacity:1;fill-rule:nonzero;stroke:none"
             id="text2872"><tspan
               x="0"
               y="0"
               id="tspan2870">●</tspan></text>
</g><g
           id="g2874"><text
             transform="matrix(1,0,0,-1,52.4,118.2)"
             style="font-variant:normal;font-weight:500;font-size:14px;font-family:DINPro;-inkscape-font-specification:DINPro-Medium;writing-mode:lr-tb;fill:#000000;fill-opacity:1;fill-rule:nonzero;stroke:none"
             id="text2878"><tspan
               x="0 9.184 13.972 21.868 29.372 35.560001 38.863998 46.452 54.236 57.931999 65.435997 72.323997"
               y="0"
               sodipodi:role="line"
               id="tspan2876">Other object</tspan></text>
</g><g
           id="g2880"><text
             transform="matrix(1,0,0,-1,52.4,100.4)"
             style="font-variant:normal;font-weight:normal;font-size:14px;font-family:DINPro;-inkscape-font-specification:DINPro-Regular;writing-mode:lr-tb;fill:#000000;fill-opacity:1;fill-rule:nonzero;stroke:none"
             id="text2884"><tspan
               x="0 4.1859999 11.676 15.456 23.142 27.034 30.436001 34.02 42 49.602001 53.186001 59.472 63.056 70.741997 78.624001 86.015999 90.202003 93.688004 100.492 105.098 112.49 116.97 121.366"
               y="0"
               sodipodi:role="line"
               id="tspan2882">(e.g. individual staff)</tspan></text>
</g></g></g></g></svg>